<svg xmlns:xlink="http://www.w3.org/1999/xlink" version="1.1" class="highcharts-root" style="font-family:&quot;Lucida Grande&quot;, &quot;Lucida Sans Unicode&quot;, Arial, Helvetica, sans-serif;font-size:12px;" xmlns="http://www.w3.org/2000/svg" width="1920" height="1080" viewBox="0 0 1920 1080"><desc>Created with Highcharts 7.1.3</desc><defs><clipPath id="highcharts-onf4jzf-85-"><rect x="0" y="0" width="1843" height="879" fill="none"></rect></clipPath></defs><rect fill="#ffffff" class="highcharts-background" x="0" y="0" width="1920" height="1080" rx="0" ry="0"></rect><rect fill="none" class="highcharts-plot-background" x="67" y="46" width="1843" height="879"></rect><g class="highcharts-pane-group" data-z-index="0"></g><g class="highcharts-grid highcharts-xaxis-grid" data-z-index="1"><path fill="none" stroke-dasharray="none" data-z-index="1" class="highcharts-grid-line" d="M 119.5 46 L 119.5 925" opacity="1"></path><path fill="none" stroke-dasharray="none" data-z-index="1" class="highcharts-grid-line" d="M 171.5 46 L 171.5 925" opacity="1"></path><path fill="none" stroke-dasharray="none" data-z-index="1" class="highcharts-grid-line" d="M 224.5 46 L 224.5 925" opacity="1"></path><path fill="none" stroke-dasharray="none" data-z-index="1" class="highcharts-grid-line" d="M 277.5 46 L 277.5 925" opacity="1"></path><path fill="none" stroke-dasharray="none" data-z-index="1" class="highcharts-grid-line" d="M 329.5 46 L 329.5 925" opacity="1"></path><path fill="none" stroke-dasharray="none" data-z-index="1" class="highcharts-grid-line" d="M 382.5 46 L 382.5 925" opacity="1"></path><path fill="none" stroke-dasharray="none" data-z-index="1" class="highcharts-grid-line" d="M 435.5 46 L 435.5 925" opacity="1"></path><path fill="none" stroke-dasharray="none" data-z-index="1" class="highcharts-grid-line" d="M 487.5 46 L 487.5 925" opacity="1"></path><path fill="none" stroke-dasharray="none" data-z-index="1" class="highcharts-grid-line" d="M 540.5 46 L 540.5 925" opacity="1"></path><path fill="none" stroke-dasharray="none" data-z-index="1" class="highcharts-grid-line" d="M 593.5 46 L 593.5 925" opacity="1"></path><path fill="none" stroke-dasharray="none" data-z-index="1" class="highcharts-grid-line" d="M 645.5 46 L 645.5 925" opacity="1"></path><path fill="none" stroke-dasharray="none" data-z-index="1" class="highcharts-grid-line" d="M 698.5 46 L 698.5 925" opacity="1"></path><path fill="none" stroke-dasharray="none" data-z-index="1" class="highcharts-grid-line" d="M 751.5 46 L 751.5 925" opacity="1"></path><path fill="none" stroke-dasharray="none" data-z-index="1" class="highcharts-grid-line" d="M 803.5 46 L 803.5 925" opacity="1"></path><path fill="none" stroke-dasharray="none" data-z-index="1" class="highcharts-grid-line" d="M 856.5 46 L 856.5 925" opacity="1"></path><path fill="none" stroke-dasharray="none" data-z-index="1" class="highcharts-grid-line" d="M 909.5 46 L 909.5 925" opacity="1"></path><path fill="none" stroke-dasharray="none" data-z-index="1" class="highcharts-grid-line" d="M 961.5 46 L 961.5 925" opacity="1"></path><path fill="none" stroke-dasharray="none" data-z-index="1" class="highcharts-grid-line" d="M 1014.5 46 L 1014.5 925" opacity="1"></path><path fill="none" stroke-dasharray="none" data-z-index="1" class="highcharts-grid-line" d="M 1066.5 46 L 1066.5 925" opacity="1"></path><path fill="none" stroke-dasharray="none" data-z-index="1" class="highcharts-grid-line" d="M 1119.5 46 L 1119.5 925" opacity="1"></path><path fill="none" stroke-dasharray="none" data-z-index="1" class="highcharts-grid-line" d="M 1172.5 46 L 1172.5 925" opacity="1"></path><path fill="none" stroke-dasharray="none" data-z-index="1" class="highcharts-grid-line" d="M 1224.5 46 L 1224.5 925" opacity="1"></path><path fill="none" stroke-dasharray="none" data-z-index="1" class="highcharts-grid-line" d="M 1277.5 46 L 1277.5 925" opacity="1"></path><path fill="none" stroke-dasharray="none" data-z-index="1" class="highcharts-grid-line" d="M 1330.5 46 L 1330.5 925" opacity="1"></path><path fill="none" stroke-dasharray="none" data-z-index="1" class="highcharts-grid-line" d="M 1382.5 46 L 1382.5 925" opacity="1"></path><path fill="none" stroke-dasharray="none" data-z-index="1" class="highcharts-grid-line" d="M 1435.5 46 L 1435.5 925" opacity="1"></path><path fill="none" stroke-dasharray="none" data-z-index="1" class="highcharts-grid-line" d="M 1488.5 46 L 1488.5 925" opacity="1"></path><path fill="none" stroke-dasharray="none" data-z-index="1" class="highcharts-grid-line" d="M 1540.5 46 L 1540.5 925" opacity="1"></path><path fill="none" stroke-dasharray="none" data-z-index="1" class="highcharts-grid-line" d="M 1593.5 46 L 1593.5 925" opacity="1"></path><path fill="none" stroke-dasharray="none" data-z-index="1" class="highcharts-grid-line" d="M 1646.5 46 L 1646.5 925" opacity="1"></path><path fill="none" stroke-dasharray="none" data-z-index="1" class="highcharts-grid-line" d="M 1698.5 46 L 1698.5 925" opacity="1"></path><path fill="none" stroke-dasharray="none" data-z-index="1" class="highcharts-grid-line" d="M 1751.5 46 L 1751.5 925" opacity="1"></path><path fill="none" stroke-dasharray="none" data-z-index="1" class="highcharts-grid-line" d="M 1804.5 46 L 1804.5 925" opacity="1"></path><path fill="none" stroke-dasharray="none" data-z-index="1" class="highcharts-grid-line" d="M 1856.5 46 L 1856.5 925" opacity="1"></path><path fill="none" stroke-dasharray="none" data-z-index="1" class="highcharts-grid-line" d="M 1909.5 46 L 1909.5 925" opacity="1"></path><path fill="none" stroke-dasharray="none" data-z-index="1" class="highcharts-grid-line" d="M 66.5 46 L 66.5 925" opacity="1"></path></g><g class="highcharts-grid highcharts-yaxis-grid" data-z-index="1"><path fill="none" stroke="#e6e6e6" stroke-width="1" stroke-dasharray="none" data-z-index="1" class="highcharts-grid-line" d="M 67 925.5 L 1910 925.5" opacity="1"></path><path fill="none" stroke="#e6e6e6" stroke-width="1" stroke-dasharray="none" data-z-index="1" class="highcharts-grid-line" d="M 67 852.5 L 1910 852.5" opacity="1"></path><path fill="none" stroke="#e6e6e6" stroke-width="1" stroke-dasharray="none" data-z-index="1" class="highcharts-grid-line" d="M 67 779.5 L 1910 779.5" opacity="1"></path><path fill="none" stroke="#e6e6e6" stroke-width="1" stroke-dasharray="none" data-z-index="1" class="highcharts-grid-line" d="M 67 705.5 L 1910 705.5" opacity="1"></path><path fill="none" stroke="#e6e6e6" stroke-width="1" stroke-dasharray="none" data-z-index="1" class="highcharts-grid-line" d="M 67 632.5 L 1910 632.5" opacity="1"></path><path fill="none" stroke="#e6e6e6" stroke-width="1" stroke-dasharray="none" data-z-index="1" class="highcharts-grid-line" d="M 67 559.5 L 1910 559.5" opacity="1"></path><path fill="none" stroke="#e6e6e6" stroke-width="1" stroke-dasharray="none" data-z-index="1" class="highcharts-grid-line" d="M 67 486.5 L 1910 486.5" opacity="1"></path><path fill="none" stroke="#e6e6e6" stroke-width="1" stroke-dasharray="none" data-z-index="1" class="highcharts-grid-line" d="M 67 412.5 L 1910 412.5" opacity="1"></path><path fill="none" stroke="#e6e6e6" stroke-width="1" stroke-dasharray="none" data-z-index="1" class="highcharts-grid-line" d="M 67 339.5 L 1910 339.5" opacity="1"></path><path fill="none" stroke="#e6e6e6" stroke-width="1" stroke-dasharray="none" data-z-index="1" class="highcharts-grid-line" d="M 67 266.5 L 1910 266.5" opacity="1"></path><path fill="none" stroke="#e6e6e6" stroke-width="1" stroke-dasharray="none" data-z-index="1" class="highcharts-grid-line" d="M 67 193.5 L 1910 193.5" opacity="1"></path><path fill="none" stroke="#e6e6e6" stroke-width="1" stroke-dasharray="none" data-z-index="1" class="highcharts-grid-line" d="M 67 119.5 L 1910 119.5" opacity="1"></path><path fill="none" stroke="#e6e6e6" stroke-width="1" stroke-dasharray="none" data-z-index="1" class="highcharts-grid-line" d="M 67 45.5 L 1910 45.5" opacity="1"></path></g><rect fill="none" class="highcharts-plot-border" data-z-index="1" x="67" y="46" width="1843" height="879"></rect><g class="highcharts-axis highcharts-xaxis" data-z-index="2"><text x="988.5" data-z-index="7" text-anchor="middle" transform="translate(0,0)" class="highcharts-axis-title" style="color:#666666;font-weight:normal;fill:#666666;" y="1017.9551023273218"><tspan>country</tspan></text><path fill="none" class="highcharts-axis-line" stroke="#ccd6eb" stroke-width="1" data-z-index="7" d="M 67 925.5 L 1910 925.5"></path></g><g class="highcharts-axis highcharts-yaxis" data-z-index="2"><text x="26.04443359375" data-z-index="7" text-anchor="middle" transform="translate(0,0) rotate(270 26.04443359375 485.5)" class="highcharts-axis-title" style="color:#666666;font-weight:normal;fill:#666666;" y="485.5"><tspan>Med(tempMin), Med(tempMax), Med(temp)</tspan></text><path fill="none" class="highcharts-axis-line" data-z-index="7" d="M 67 46 L 67 925"></path></g><g class="highcharts-series-group" data-z-index="3"><g data-z-index="0.1" class="highcharts-series highcharts-series-0 highcharts-line-series " transform="translate(67,46) scale(1 1)" clip-path="url(#highcharts-onf4jzf-85-)"><path fill="none" d="M 26.328571428571 278.3499999999988 L 52.657142857142496 278.3499999999988 L 52.657142857142496 454.8824999999985 L 78.985714285714 454.8824999999985 L 105.314285714287 454.8824999999985 L 105.314285714287 466.60249999999826 L 131.64285714286 466.60249999999826 L 157.97142857143 466.60249999999826 L 157.97142857143 520.4412499999992 L 184.3 520.4412499999992 L 210.62857142857 520.4412499999992 L 210.62857142857 380.16749999999985 L 236.95714285714 380.16749999999985 L 263.285714285715 380.16749999999985 L 263.285714285715 484.1824999999989 L 289.61428571429 484.1824999999989 L 315.94285714286 484.1824999999989 L 315.94285714286 402.875 L 342.27142857143 402.875 L 368.6 402.875 L 368.6 579.4074999999998 L 394.92857142857 579.4074999999998 L 421.25714285714 579.4074999999998 L 421.25714285714 623.723749999999 L 447.58571428571 623.723749999999 L 473.91428571428503 623.723749999999 L 473.91428571428503 455.24874999999815 L 500.24285714286 455.24874999999815 L 526.57142857143 455.24874999999815 L 526.57142857143 516.0462499999991 L 552.9 516.0462499999991 L 579.2285714285699 516.0462499999991 L 579.2285714285699 635.4437499999988 L 605.55714285714 635.4437499999988 L 631.885714285715 635.4437499999988 L 631.885714285715 520.0749999999996 L 658.21428571429 520.0749999999996 L 684.5428571428599 520.0749999999996 L 684.5428571428599 631.0487499999986 L 710.87142857143 631.0487499999986 L 737.2 631.0487499999986 L 737.2 503.59375 L 763.52857142857 503.59375 L 789.8571428571399 503.59375 L 789.8571428571399 553.0374999999988 L 816.18571428571 553.0374999999988 L 842.514285714285 553.0374999999988 L 842.514285714285 695.875 L 868.84285714286 695.875 L 895.1714285714299 695.875 L 895.1714285714299 721.6956249999994 L 921.5 721.6956249999994 L 947.8285714285701 721.6956249999994 L 947.8285714285701 604.3125 L 974.15714285714 604.3125 L 1000.48571428572 604.3125 L 1000.48571428572 622.625 L 1026.8142857143 622.625 L 1053.14285714285 622.625 L 1053.14285714285 676.463749999999 L 1079.4714285714 676.463749999999 L 1105.8000000000002 676.463749999999 L 1105.8000000000002 691.1137500000002 L 1132.1285714286 691.1137500000002 L 1158.4571428571498 691.1137500000002 L 1158.4571428571498 698.0725000000001 L 1184.7857142857 698.0725000000001 L 1211.1142857143 698.0725000000001 L 1211.1142857143 774.6187499999992 L 1237.4428571429 774.6187499999992 L 1263.77142857145 774.6187499999992 L 1263.77142857145 757.4049999999982 L 1290.1 757.4049999999982 L 1316.42857142855 757.4049999999982 L 1316.42857142855 769.125 L 1342.7571428571 769.125" class="highcharts-graph" data-z-index="1" stroke="#7cb5ec" stroke-width="2" stroke-dasharray="none"></path></g><g data-z-index="0.1" class="highcharts-markers highcharts-series-0 highcharts-line-series " transform="translate(67,46) scale(1 1)" clip-path="none"></g><g data-z-index="0.1" class="highcharts-series highcharts-series-1 highcharts-line-series " transform="translate(67,46) scale(1 1)" clip-path="url(#highcharts-onf4jzf-85-)"><path fill="none" d="M 26.328571428571 80.57499999999959 L 52.657142857142496 80.57499999999959 L 52.657142857142496 43.217499999998154 L 78.985714285714 43.217499999998154 L 105.314285714287 43.217499999998154 L 105.314285714287 135.1462499999999 L 131.64285714286 135.1462499999999 L 157.97142857143 135.1462499999999 L 157.97142857143 109.875 L 184.3 109.875 L 210.62857142857 109.875 L 210.62857142857 213.52374999999938 L 236.95714285714 213.52374999999938 L 263.285714285715 213.52374999999938 L 263.285714285715 240.2600000000001 L 289.61428571429 240.2600000000001 L 315.94285714286 240.2600000000001 L 315.94285714286 251.6137500000002 L 342.27142857143 251.6137500000002 L 368.6 251.6137500000002 L 368.6 182.02624999999887 L 394.92857142857 182.02624999999887 L 421.25714285714 182.02624999999887 L 421.25714285714 173.60249999999826 L 447.58571428571 173.60249999999826 L 473.91428571428503 173.60249999999826 L 473.91428571428503 293 L 500.24285714286 293 L 526.57142857143 293 L 526.57142857143 256.375 L 552.9 256.375 L 579.2285714285699 256.375 L 579.2285714285699 201.8037499999997 L 605.55714285714 201.8037499999997 L 631.885714285715 201.8037499999997 L 631.885714285715 293 L 658.21428571429 293 L 684.5428571428599 293 L 684.5428571428599 222.3137499999998 L 710.87142857143 222.3137499999998 L 737.2 222.3137499999998 L 737.2 329.625 L 763.52857142857 329.625 L 789.8571428571399 329.625 L 789.8571428571399 329.625 L 816.18571428571 329.625 L 842.514285714285 329.625 L 842.514285714285 256.375 L 868.84285714286 256.375 L 895.1714285714299 256.375 L 895.1714285714299 263.6999999999996 L 921.5 263.6999999999996 L 947.8285714285701 263.6999999999996 L 947.8285714285701 367.348749999999 L 974.15714285714 367.348749999999 L 1000.48571428572 367.348749999999 L 1000.48571428572 347.57124999999826 L 1026.8142857143 347.57124999999826 L 1053.14285714285 347.57124999999826 L 1053.14285714285 293 L 1079.4714285714 293 L 1105.8000000000002 293 L 1105.8000000000002 293 L 1132.1285714286 293 L 1158.4571428571498 293 L 1158.4571428571498 317.90499999999815 L 1184.7857142857 317.90499999999815 L 1211.1142857143 317.90499999999815 L 1211.1142857143 396.28249999999974 L 1237.4428571429 396.28249999999974 L 1263.77142857145 396.28249999999974 L 1263.77142857145 420.45499999999856 L 1290.1 420.45499999999856 L 1316.42857142855 420.45499999999856 L 1316.42857142855 462.57374999999985 L 1342.7571428571 462.57374999999985" class="highcharts-graph" data-z-index="1" stroke="#90ed7d" stroke-width="2" stroke-dasharray="none"></path></g><g data-z-index="0.1" class="highcharts-markers highcharts-series-1 highcharts-line-series " transform="translate(67,46) scale(1 1)" clip-path="none"></g><g data-z-index="0.1" class="highcharts-series highcharts-series-2 highcharts-line-series " transform="translate(67,46) scale(1 1)" clip-path="url(#highcharts-onf4jzf-85-)"><path fill="none" d="M 26.328571428571 203.37339285714188 L 52.657142857142496 203.37339285714188 L 52.657142857142496 203.4257142857134 L 78.985714285714 203.4257142857134 L 105.314285714287 203.4257142857134 L 105.314285714287 248.57910714285651 L 131.64285714286 248.57910714285651 L 157.97142857143 248.57910714285651 L 157.97142857143 273.01321428571373 L 184.3 273.01321428571373 L 210.62857142857 273.01321428571373 L 210.62857142857 292.502946428571 L 236.95714285714 292.502946428571 L 263.285714285715 292.502946428571 L 263.285714285715 333.3921428571424 L 289.61428571429 333.3921428571424 L 315.94285714286 333.3921428571424 L 315.94285714286 336.37446428571377 L 342.27142857143 336.37446428571377 L 368.6 336.37446428571377 L 368.6 341.92053571428494 L 394.92857142857 341.92053571428494 L 421.25714285714 341.92053571428494 L 421.25714285714 360.1283928571422 L 447.58571428571 360.1283928571422 L 473.91428571428503 360.1283928571422 L 473.91428571428503 361.82883928571346 L 500.24285714286 361.82883928571346 L 526.57142857143 361.82883928571346 L 526.57142857143 368.0812499999993 L 552.9 368.0812499999993 L 579.2285714285699 368.0812499999993 L 579.2285714285699 392.3583928571426 L 605.55714285714 392.3583928571426 L 631.885714285715 392.3583928571426 L 631.885714285715 399.0032142857139 L 658.21428571429 399.0032142857139 L 684.5428571428599 399.0032142857139 L 684.5428571428599 408.1594642857134 L 710.87142857143 408.1594642857134 L 737.2 408.1594642857134 L 737.2 410.67089285714235 L 763.52857142857 410.67089285714235 L 789.8571428571399 410.67089285714235 L 789.8571428571399 429.76821428571367 L 816.18571428571 429.76821428571367 L 842.514285714285 429.76821428571367 L 842.514285714285 456.50446428571433 L 868.84285714286 456.50446428571433 L 895.1714285714299 456.50446428571433 L 895.1714285714299 460.5593749999993 L 921.5 460.5593749999993 L 947.8285714285701 460.5593749999993 L 947.8285714285701 461.52732142857076 L 974.15714285714 461.52732142857076 L 1000.48571428572 461.52732142857076 L 1000.48571428572 471.154464285714 L 1026.8142857143 471.154464285714 L 1053.14285714285 471.154464285714 L 1053.14285714285 472.61946428571383 L 1079.4714285714 472.61946428571383 L 1105.8000000000002 472.61946428571383 L 1105.8000000000002 472.6717857142856 L 1132.1285714286 472.6717857142856 L 1158.4571428571498 472.6717857142856 L 1158.4571428571498 501.44857142857074 L 1184.7857142857 501.44857142857074 L 1211.1142857143 501.44857142857074 L 1211.1142857143 560.3624999999995 L 1237.4428571429 560.3624999999995 L 1263.77142857145 560.3624999999995 L 1263.77142857145 573.2335714285703 L 1290.1 573.2335714285703 L 1316.42857142855 573.2335714285703 L 1316.42857142855 595.2085714285705 L 1342.7571428571 595.2085714285705" class="highcharts-graph" data-z-index="1" stroke="#f7a35c" stroke-width="2" stroke-dasharray="none"></path></g><g data-z-index="0.1" class="highcharts-markers highcharts-series-2 highcharts-line-series " transform="translate(67,46) scale(1 1)" clip-path="none"></g></g><text x="960" text-anchor="middle" class="highcharts-title" data-z-index="4" style="color:#333333;font-size:14;font-weight:normal;fill:#333333;" y="21"><tspan>Temperatures by country</tspan></text><text x="960" text-anchor="middle" class="highcharts-subtitle" data-z-index="4" style="color:#666666;fill:#666666;" y="45"></text><g class="highcharts-legend" data-z-index="7" transform="translate(781,1036)"><rect fill="none" class="highcharts-legend-box" rx="0" ry="0" x="0" y="0" width="357" height="29" visibility="visible"></rect><g data-z-index="1"><g><g class="highcharts-legend-item highcharts-line-series highcharts-color-undefined highcharts-series-0" data-z-index="1" transform="translate(8,3)"><path fill="none" d="M 0 11 L 16 11" class="highcharts-graph" stroke-dasharray="none" stroke="#7cb5ec" stroke-width="2"></path><text x="21" style="color:#333333;cursor:pointer;font-size:12px;font-weight:bold;fill:#333333;" text-anchor="start" data-z-index="2" y="15"><tspan>Med(tempMin)</tspan></text></g><g class="highcharts-legend-item highcharts-line-series highcharts-color-undefined highcharts-series-1" data-z-index="1" transform="translate(134.658203125,3)"><path fill="none" d="M 0 11 L 16 11" class="highcharts-graph" stroke-dasharray="none" stroke="#90ed7d" stroke-width="2"></path><text x="21" y="15" style="color:#333333;cursor:pointer;font-size:12px;font-weight:bold;fill:#333333;" text-anchor="start" data-z-index="2"><tspan>Med(tempMax)</tspan></text></g><g class="highcharts-legend-item highcharts-line-series highcharts-color-undefined highcharts-series-2" data-z-index="1" transform="translate(264.38671875,3)"><path fill="none" d="M 0 11 L 16 11" class="highcharts-graph" stroke-dasharray="none" stroke="#f7a35c" stroke-width="2"></path><text x="21" y="15" style="color:#333333;cursor:pointer;font-size:12px;font-weight:bold;fill:#333333;" text-anchor="start" data-z-index="2"><tspan>Med(temp)</tspan></text></g></g></g></g><g class="highcharts-axis-labels highcharts-xaxis-labels" data-z-index="7"><text x="95.92129629291924" style="color:#666666;cursor:default;font-size:11px;font-weight:normal;fill:#666666;" text-anchor="end" transform="translate(0,0) rotate(-45 95.92129629291924 941)" y="941" opacity="1">India</text><text x="148.57843915006927" style="color:#666666;cursor:default;font-size:11px;font-weight:normal;fill:#666666;" text-anchor="end" transform="translate(0,0) rotate(-45 148.57843915006927 941)" y="941" opacity="1">Cyprus</text><text x="201.23558200720927" style="color:#666666;cursor:default;font-size:11px;font-weight:normal;fill:#666666;" text-anchor="end" transform="translate(0,0) rotate(-45 201.23558200720927 941)" y="941" opacity="1">Israel</text><text x="253.89272486434925" style="color:#666666;cursor:default;font-size:11px;font-weight:normal;fill:#666666;" text-anchor="end" transform="translate(0,0) rotate(-45 253.89272486434925 941)" y="941" opacity="1">Greece</text><text x="306.54986772148925" style="color:#666666;cursor:default;font-size:11px;font-weight:normal;fill:#666666;" text-anchor="end" transform="translate(0,0) rotate(-45 306.54986772148925 941)" y="941" opacity="1">Brazil</text><text x="359.20701057863926" style="color:#666666;cursor:default;font-size:11px;font-weight:normal;fill:#666666;" text-anchor="end" transform="translate(0,0) rotate(-45 359.20701057863926 941)" y="941" opacity="1">Morocco</text><text x="411.86415343577926" style="color:#666666;cursor:default;font-size:11px;font-weight:normal;fill:#666666;" text-anchor="end" transform="translate(0,0) rotate(-45 411.86415343577926 941)" y="941" opacity="1">Mexico</text><text x="464.52129629291926" style="color:#666666;cursor:default;font-size:11px;font-weight:normal;fill:#666666;" text-anchor="end" transform="translate(0,0) rotate(-45 464.52129629291926 941)" y="941" opacity="1">Spain</text><text x="517.1784391500693" style="color:#666666;cursor:default;font-size:11px;font-weight:normal;fill:#666666;" text-anchor="end" transform="translate(0,0) rotate(-45 517.1784391500693 941)" y="941" opacity="1">US</text><text x="569.8355820072093" style="color:#666666;cursor:default;font-size:11px;font-weight:normal;fill:#666666;" text-anchor="end" transform="translate(0,0) rotate(-45 569.8355820072093 941)" y="941" opacity="1">Peru</text><text x="622.4927248643493" style="color:#666666;cursor:default;font-size:11px;font-weight:normal;fill:#666666;" text-anchor="end" transform="translate(0,0) rotate(-45 622.4927248643493 941)" y="941" opacity="1">Uruguay</text><text x="675.1498677214893" style="color:#666666;cursor:default;font-size:11px;font-weight:normal;fill:#666666;" text-anchor="end" transform="translate(0,0) rotate(-45 675.1498677214893 941)" y="941" opacity="1">Italy</text><text x="727.8070105786393" style="color:#666666;cursor:default;font-size:11px;font-weight:normal;fill:#666666;" text-anchor="end" transform="translate(0,0) rotate(-45 727.8070105786393 941)" y="941" opacity="1">Australia</text><text x="780.4641534357793" style="color:#666666;cursor:default;font-size:11px;font-weight:normal;fill:#666666;" text-anchor="end" transform="translate(0,0) rotate(-45 780.4641534357793 941)" y="941" opacity="1">Croatia</text><text x="833.1212962929193" style="color:#666666;cursor:default;font-size:11px;font-weight:normal;fill:#666666;" text-anchor="end" transform="translate(0,0) rotate(-45 833.1212962929193 941)" y="941" opacity="1"><tspan>South Africa</tspan></text><text x="885.7784391500693" style="color:#666666;cursor:default;font-size:11px;font-weight:normal;fill:#666666;" text-anchor="end" transform="translate(0,0) rotate(-45 885.7784391500693 941)" y="941" opacity="1"><tspan>New Zealand</tspan></text><text x="938.4355820072093" style="color:#666666;cursor:default;font-size:11px;font-weight:normal;fill:#666666;" text-anchor="end" transform="translate(0,0) rotate(-45 938.4355820072093 941)" y="941" opacity="1">Moldova</text><text x="991.0927248643792" style="color:#666666;cursor:default;font-size:11px;font-weight:normal;fill:#666666;" text-anchor="end" transform="translate(0,0) rotate(-45 991.0927248643792 941)" y="941" opacity="1">Romania</text><text x="1043.7498677214792" style="color:#666666;cursor:default;font-size:11px;font-weight:normal;fill:#666666;" text-anchor="end" transform="translate(0,0) rotate(-45 1043.7498677214792 941)" y="941" opacity="1">Portugal</text><text x="1096.4070105786793" style="color:#666666;cursor:default;font-size:11px;font-weight:normal;fill:#666666;" text-anchor="end" transform="translate(0,0) rotate(-45 1096.4070105786793 941)" y="941" opacity="1">Chile</text><text x="1149.0641534357792" style="color:#666666;cursor:default;font-size:11px;font-weight:normal;fill:#666666;" text-anchor="end" transform="translate(0,0) rotate(-45 1149.0641534357792 941)" y="941" opacity="1">France</text><text x="1201.7212962928793" style="color:#666666;cursor:default;font-size:11px;font-weight:normal;fill:#666666;" text-anchor="end" transform="translate(0,0) rotate(-45 1201.7212962928793 941)" y="941" opacity="1">Hungary</text><text x="1254.3784391500792" style="color:#666666;cursor:default;font-size:11px;font-weight:normal;fill:#666666;" text-anchor="end" transform="translate(0,0) rotate(-45 1254.3784391500792 941)" y="941" opacity="1">Austria</text><text x="1307.0355820071793" style="color:#666666;cursor:default;font-size:11px;font-weight:normal;fill:#666666;" text-anchor="end" transform="translate(0,0) rotate(-45 1307.0355820071793 941)" y="941" opacity="1">Germany</text><text x="1359.6927248643792" style="color:#666666;cursor:default;font-size:11px;font-weight:normal;fill:#666666;" text-anchor="end" transform="translate(0,0) rotate(-45 1359.6927248643792 941)" y="941" opacity="1">Canada</text><text x="1412.3498677214793" style="color:#666666;cursor:default;font-size:11px;font-weight:normal;fill:#666666;" text-anchor="end" transform="translate(0,0) rotate(-45 1412.3498677214793 941)" y="941" opacity="1">England</text><text x="1465.0070105786792" style="color:#666666;cursor:default;font-size:11px;font-weight:normal;fill:#666666;" text-anchor="end" transform="translate(0,0) rotate(-45 1465.0070105786792 941)" y="941" opacity="1">Argentina</text><text x="1517.6641534357793" style="color:#666666;cursor:default;font-size:11px;font-weight:normal;fill:#666666;" text-anchor="end" transform="translate(0,0) rotate(-45 1517.6641534357793 941)" y="941" opacity="1">Turkey</text><text x="1570.3212962928792" style="color:#666666;cursor:default;font-size:11px;font-weight:normal;fill:#666666;" text-anchor="end" transform="translate(0,0) rotate(-45 1570.3212962928792 941)" y="941" opacity="1"><tspan>Czech Republic</tspan></text><text x="1622.9784391500793" style="color:#666666;cursor:default;font-size:11px;font-weight:normal;fill:#666666;" text-anchor="end" transform="translate(0,0) rotate(-45 1622.9784391500793 941)" y="941" opacity="1">Slovenia</text><text x="1675.6355820071792" style="color:#666666;cursor:default;font-size:11px;font-weight:normal;fill:#666666;" text-anchor="end" transform="translate(0,0) rotate(-45 1675.6355820071792 941)" y="941" opacity="1">Georgia</text><text x="1728.2927248643791" style="color:#666666;cursor:default;font-size:11px;font-weight:normal;fill:#666666;" text-anchor="end" transform="translate(0,0) rotate(-45 1728.2927248643791 941)" y="941" opacity="1">Lebanon</text><text x="1780.9498677214792" style="color:#666666;cursor:default;font-size:11px;font-weight:normal;fill:#666666;" text-anchor="end" transform="translate(0,0) rotate(-45 1780.9498677214792 941)" y="941" opacity="1">Serbia</text><text x="1833.6070105786791" style="color:#666666;cursor:default;font-size:11px;font-weight:normal;fill:#666666;" text-anchor="end" transform="translate(0,0) rotate(-45 1833.6070105786791 941)" y="941" opacity="1">Bulgaria</text><text x="1886.2641534357792" style="color:#666666;cursor:default;font-size:11px;font-weight:normal;fill:#666666;" text-anchor="end" transform="translate(0,0) rotate(-45 1886.2641534357792 941)" y="941" opacity="1">Armenia</text></g><g class="highcharts-axis-labels highcharts-yaxis-labels" data-z-index="7"><text x="52" style="color:#666666;cursor:default;font-size:11px;font-weight:normal;fill:#666666;" text-anchor="end" transform="translate(0,0)" y="929" opacity="1">6</text><text x="52" style="color:#666666;cursor:default;font-size:11px;font-weight:normal;fill:#666666;" text-anchor="end" transform="translate(0,0)" y="856" opacity="1">8</text><text x="52" style="color:#666666;cursor:default;font-size:11px;font-weight:normal;fill:#666666;" text-anchor="end" transform="translate(0,0)" y="783" opacity="1">10</text><text x="52" style="color:#666666;cursor:default;font-size:11px;font-weight:normal;fill:#666666;" text-anchor="end" transform="translate(0,0)" y="709" opacity="1">12</text><text x="52" style="color:#666666;cursor:default;font-size:11px;font-weight:normal;fill:#666666;" text-anchor="end" transform="translate(0,0)" y="636" opacity="1">14</text><text x="52" style="color:#666666;cursor:default;font-size:11px;font-weight:normal;fill:#666666;" text-anchor="end" transform="translate(0,0)" y="563" opacity="1">16</text><text x="52" style="color:#666666;cursor:default;font-size:11px;font-weight:normal;fill:#666666;" text-anchor="end" transform="translate(0,0)" y="490" opacity="1">18</text><text x="52" style="color:#666666;cursor:default;font-size:11px;font-weight:normal;fill:#666666;" text-anchor="end" transform="translate(0,0)" y="416" opacity="1">20</text><text x="52" style="color:#666666;cursor:default;font-size:11px;font-weight:normal;fill:#666666;" text-anchor="end" transform="translate(0,0)" y="343" opacity="1">22</text><text x="52" style="color:#666666;cursor:default;font-size:11px;font-weight:normal;fill:#666666;" text-anchor="end" transform="translate(0,0)" y="270" opacity="1">24</text><text x="52" style="color:#666666;cursor:default;font-size:11px;font-weight:normal;fill:#666666;" text-anchor="end" transform="translate(0,0)" y="197" opacity="1">26</text><text x="52" style="color:#666666;cursor:default;font-size:11px;font-weight:normal;fill:#666666;" text-anchor="end" transform="translate(0,0)" y="123" opacity="1">28</text><text x="52" style="color:#666666;cursor:default;font-size:11px;font-weight:normal;fill:#666666;" text-anchor="end" transform="translate(0,0)" y="50" opacity="1">30</text></g></svg>